<?xml version="1.0" encoding="UTF-8"?>
<svg xmlns="http://www.w3.org/2000/svg" fill="currentColor" xml:space="preserve" width="100px" height="100px" version="1.1" 
viewBox="0 0 100 100"><g><path fill="currentColor" d="M64.47 4.06c-0.11,0.23 -0.44,1.71 -0.73,3.27l-0.5 2.86 -37.59 26.32c-13.2,9.24 -12.64,8.82 -13.53,10.54 -0.49,0.97 -0.78,2.75 -0.63,3.86 0.06,0.4 0.31,1.27 0.55,1.89 0.24,0.63 0.44,1.25 0.45,1.36 0.01,0.15 -0.3,0.2 -1.12,0.17 -2.62,-0.09 -3.97,0.44 -7.44,2.94 -2.74,1.97 -2.78,2.02 -2.81,3.21 -0.01,0.69 0.75,1.78 1.4,1.99 1.1,0.37 1.23,0.33 3.65,-1.31l2.23 -1.51 1.19 1.78 1.19 1.77c-0.64,3.46 -0.86,7.29 -1.29,9.84 -0.61,3.59 -0.62,6.05 -0.06,9.61 0.56,3.51 1.65,6.64 3.4,9.78 1.86,3.3 3.07,4.39 5.44,4.86 1.23,0.25 2.56,0.13 3.66,-0.35 0.46,-0.2 -1.62,1.31 2.08,-1.31l5.52 -3.92 0.39 -0.69c0.47,-0.88 0.69,-2.07 0.53,-3.06l-0.12 -0.78 -4.52 -6.59c-4.42,-6.42 -5.33,-9.22 -5.47,-9.9 -0.33,-1.93 -0.04,-3.5 1.03,-4.69 1.73,-1.02 2.94,-2.88 4.73,-0.77 1.39,1.64 2.67,2.39 4.49,2.67 1.19,0.17 2.31,0.04 3.45,-0.38 1.11,-0.41 5.56,-3.53 6.33,-4.43 1.63,-1.92 2.11,-4.55 1.23,-6.91 -0.22,-0.58 -0.72,-1.4 -1.82,-2.97l-1.51 -2.16 1.23 -0.93c1.34,-1 1.53,-1.29 1.56,-2.34 0.01,-0.47 -0.09,-0.64 -3.43,-5.49l-2.56 -3.72 32.99 -23.1 7.41 -5.19 -0.82 -1.18 -3.24 -4.63 -0.92 0.64 -0.91 0.64 -0.94 -1.23c-0.99,-1.34 -1.28,-1.54 -2.3,-1.56 -0.64,-0.03 -1.59,0.54 -1.87,1.1zm-33.98 35.88l0.69 0.98 -6.49 4.54 -6.49 4.55 -0.69 -0.99 -0.69 -0.98 6.49 -4.54 6.49 -4.55 0.69 0.99zm2.63 3.76l0.65 0.93 -6.49 4.54 -6.48 4.54 -0.65 -0.92 -0.65 -0.93 6.49 -4.54 6.48 -4.54 0.65 0.92zm-3.72 13.73c0.14,0.02 0.49,0.4 0.87,0.94 0.85,1.22 2.08,2.35 3.11,2.88 0.75,0.38 0.9,0.41 1.25,0.22 0.63,-0.36 0.5,-0.77 -0.5,-1.54 -1.09,-0.81 -1.71,-1.85 -2.04,-3.3l-0.22 -1.05 0.92 -0.63c1.11,-0.76 2.03,-0.97 3.28,-0.76 1.3,0.23 2.05,0.72 2.86,1.88 0.62,0.91 0.69,1.09 0.8,2 0.14,1.09 -0.02,1.89 -0.57,2.88 -0.32,0.61 -0.46,0.72 -3.17,2.62 -2.8,1.96 -2.85,2 -3.62,2.1 -4.05,0.63 -6.8,-3.83 -4.41,-7.15 0.47,-0.66 1.13,-1.15 1.44,-1.09z"/><path fill="currentColor" d="M35.45 3.76c0.12,0.23 0.45,1.71 0.73,3.27l0.51 2.86 37.58 26.32c13.2,9.24 12.65,8.82 13.53,10.54 0.5,0.97 0.78,2.76 0.63,3.86 -0.06,0.41 -0.3,1.27 -0.55,1.89 -0.23,0.63 -0.44,1.25 -0.45,1.36 0,0.15 0.31,0.2 1.13,0.17 2.61,-0.09 3.96,0.45 7.43,2.94 2.74,1.97 2.78,2.02 2.81,3.21 0.02,0.69 -0.74,1.78 -1.4,1.99 -1.1,0.37 -1.23,0.33 -3.65,-1.31l-2.22 -1.51 -1.2 1.78 -1.19 1.77c0.65,3.46 0.86,7.29 1.29,9.84 0.62,3.59 0.62,6.05 0.06,9.61 -0.56,3.51 -1.65,6.65 -3.39,9.78 -1.87,3.3 -3.08,4.39 -5.45,4.87 -1.22,0.24 -2.56,0.12 -3.66,-0.35 -0.46,-0.21 1.63,1.31 -2.07,-1.32l-5.53 -3.92 -0.38 -0.69c-0.47,-0.88 -0.69,-2.07 -0.53,-3.06l0.11 -0.78 4.53 -6.59c4.41,-6.42 5.33,-9.22 5.46,-9.9 0.34,-1.93 0.04,-3.49 -1.02,-4.69 -1.73,-1.02 -2.94,-2.87 -4.73,-0.77 -1.39,1.64 -2.68,2.39 -4.5,2.67 -1.19,0.17 -2.31,0.04 -3.45,-0.38 -1.1,-0.41 -5.55,-3.52 -6.32,-4.42 -1.64,-1.93 -2.11,-4.56 -1.24,-6.91 0.22,-0.59 0.73,-1.41 1.82,-2.97l1.52 -2.17 -1.23 -0.93c-1.34,-0.99 -1.54,-1.28 -1.56,-2.34 -0.01,-0.47 0.09,-0.64 3.43,-5.48l2.56 -3.73 -32.99 -23.1 -7.42 -5.19 0.82 -1.18 3.25 -4.63 0.91 0.64 0.92 0.64 0.93 -1.23c0.99,-1.34 1.28,-1.53 2.3,-1.56 0.64,-0.02 1.59,0.54 1.87,1.1zm33.99 35.88l-0.69 0.98 6.49 4.55 6.48 4.54 0.69 -0.99 0.69 -0.98 -6.49 -4.54 -6.48 -4.54 -0.69 0.98zm-2.64 3.77l-0.65 0.92 6.49 4.54 6.49 4.55 0.65 -0.93 0.64 -0.93 -6.48 -4.54 -6.49 -4.54 -0.65 0.93zm3.72 13.72c-0.14,0.02 -0.49,0.4 -0.87,0.94 -0.85,1.22 -2.07,2.35 -3.11,2.89 -0.74,0.37 -0.9,0.4 -1.25,0.21 -0.63,-0.36 -0.5,-0.77 0.5,-1.53 1.09,-0.81 1.72,-1.86 2.04,-3.31l0.22 -1.05 -0.92 -0.63c-1.11,-0.76 -2.03,-0.97 -3.27,-0.75 -1.3,0.23 -2.06,0.71 -2.87,1.87 -0.62,0.91 -0.69,1.09 -0.79,2 -0.15,1.09 0.02,1.9 0.57,2.89 0.31,0.6 0.46,0.72 3.17,2.61 2.79,1.96 2.85,2 3.62,2.11 4.05,0.62 6.79,-3.84 4.4,-7.16 -0.47,-0.65 -1.12,-1.15 -1.44,-1.09z"/></g></svg>
